<svg width="601" height="601" viewBox="0 0 601 601" fill="none" xmlns="http://www.w3.org/2000/svg">
<path d="M351.206 420.39H22.4694C16.6127 420.383 10.9978 418.054 6.85654 413.912C2.71525 409.771 0.385759 404.156 0.37915 398.299V22.6182C0.385762 16.7615 2.71525 11.1466 6.85654 7.00531C10.9978 2.86401 16.6127 0.534506 22.4694 0.527863H351.206C357.063 0.534479 362.678 2.86397 366.819 7.00528C370.961 11.1466 373.29 16.7615 373.297 22.6182V398.299C373.29 404.156 370.961 409.771 366.819 413.912C362.678 418.054 357.063 420.383 351.206 420.39Z" fill="#E6E6E6"/>
<path d="M335.845 401.979H37.8304C32.6303 401.973 27.6449 399.904 23.9679 396.227C20.2909 392.55 18.2226 387.565 18.2167 382.365V38.5527C18.2226 33.3527 20.2909 28.3672 23.9679 24.6902C27.6449 21.0132 32.6303 18.9449 37.8304 18.939H335.845C341.045 18.9448 346.031 21.0132 349.708 24.6902C353.385 28.3672 355.453 33.3526 355.459 38.5527V382.365C355.453 387.565 353.385 392.55 349.708 396.227C346.031 399.904 341.045 401.973 335.845 401.979Z" fill="white"/>
<path d="M323.99 67.873H173.65C173.005 67.8739 172.367 67.7477 171.771 67.5018C171.176 67.2558 170.634 66.8948 170.178 66.4394C169.722 65.984 169.36 65.4432 169.114 64.8478C168.867 64.2525 168.74 63.6144 168.74 62.9699C168.74 62.3254 168.867 61.6873 169.114 61.0919C169.36 60.4966 169.722 59.9558 170.178 59.5004C170.634 59.045 171.176 58.684 171.771 58.438C172.367 58.192 173.005 58.0659 173.65 58.0668H323.99C324.634 58.0659 325.272 58.192 325.868 58.438C326.464 58.684 327.005 59.045 327.461 59.5004C327.917 59.9558 328.279 60.4966 328.526 61.0919C328.773 61.6873 328.9 62.3254 328.9 62.9699C328.9 63.6144 328.773 64.2525 328.526 64.8478C328.279 65.4432 327.917 65.984 327.461 66.4394C327.005 66.8948 326.464 67.2558 325.868 67.5018C325.272 67.7477 324.634 67.8739 323.99 67.873Z" fill="#E4E4E4"/>
<path d="M323.99 87.2475H173.65C172.349 87.2475 171.102 86.7309 170.183 85.8113C169.263 84.8918 168.746 83.6446 168.746 82.3442C168.746 81.0437 169.263 79.7965 170.183 78.877C171.102 77.9574 172.349 77.4408 173.65 77.4408H323.99C325.29 77.4408 326.537 77.9574 327.457 78.877C328.376 79.7965 328.893 81.0437 328.893 82.3442C328.893 83.6446 328.376 84.8918 327.457 85.8113C326.537 86.7309 325.29 87.2475 323.99 87.2475Z" fill="#E4E4E4"/>
<path d="M238.818 106.622H173.65C172.349 106.622 171.102 106.105 170.183 105.186C169.263 104.266 168.746 103.019 168.746 101.719C168.746 100.418 169.263 99.1711 170.183 98.2515C171.102 97.332 172.349 96.8154 173.65 96.8154H238.818C240.119 96.8154 241.366 97.332 242.286 98.2515C243.205 99.1711 243.722 100.418 243.722 101.719C243.722 103.019 243.205 104.266 242.286 105.186C241.366 106.105 240.119 106.622 238.818 106.622Z" fill="#E4E4E4"/>
<path d="M305.86 184.873H68.5206C67.8761 184.874 67.2378 184.748 66.6421 184.502C66.0464 184.256 65.5051 183.895 65.049 183.439C64.593 182.984 64.2312 182.443 63.9844 181.848C63.7375 181.253 63.6105 180.614 63.6105 179.97C63.6105 179.325 63.7375 178.687 63.9844 178.092C64.2312 177.497 64.593 176.956 65.049 176.5C65.5051 176.045 66.0464 175.684 66.6421 175.438C67.2378 175.192 67.8761 175.066 68.5206 175.067H305.86C306.505 175.066 307.143 175.192 307.739 175.438C308.335 175.684 308.876 176.045 309.332 176.5C309.788 176.956 310.15 177.497 310.397 178.092C310.643 178.687 310.77 179.325 310.77 179.97C310.77 180.614 310.643 181.253 310.397 181.848C310.15 182.443 309.788 182.984 309.332 183.439C308.876 183.895 308.335 184.256 307.739 184.502C307.143 184.748 306.505 184.874 305.86 184.873Z" fill="#E4E4E4"/>
<path d="M305.86 204.247H68.5205C67.2201 204.247 65.9729 203.731 65.0533 202.811C64.1338 201.892 63.6172 200.645 63.6172 199.344C63.6172 198.044 64.1338 196.797 65.0533 195.877C65.9729 194.957 67.2201 194.441 68.5205 194.441H305.86C307.161 194.441 308.408 194.957 309.327 195.877C310.247 196.797 310.764 198.044 310.764 199.344C310.764 200.645 310.247 201.892 309.327 202.811C308.408 203.731 307.161 204.247 305.86 204.247Z" fill="#E4E4E4"/>
<path d="M305.86 248.227H68.5205C67.2201 248.227 65.973 247.71 65.0535 246.791C64.134 245.871 63.6174 244.624 63.6174 243.324C63.6174 242.023 64.134 240.776 65.0535 239.857C65.973 238.937 67.2201 238.421 68.5205 238.421H305.86C307.161 238.421 308.408 238.937 309.327 239.857C310.247 240.776 310.763 242.023 310.763 243.324C310.763 244.624 310.247 245.871 309.327 246.791C308.408 247.71 307.161 248.227 305.86 248.227Z" fill="#E4E4E4"/>
<path d="M305.86 267.601H68.5205C67.2201 267.601 65.9729 267.085 65.0533 266.165C64.1338 265.246 63.6172 263.998 63.6172 262.698C63.6172 261.398 64.1338 260.15 65.0533 259.231C65.9729 258.311 67.2201 257.795 68.5205 257.795H305.86C307.161 257.795 308.408 258.311 309.327 259.231C310.247 260.15 310.764 261.398 310.764 262.698C310.764 263.998 310.247 265.246 309.327 266.165C308.408 267.085 307.161 267.601 305.86 267.601Z" fill="#E4E4E4"/>
<path d="M305.86 311.581H68.5205C67.2201 311.581 65.973 311.064 65.0535 310.145C64.134 309.225 63.6174 307.978 63.6174 306.678C63.6174 305.377 64.134 304.13 65.0535 303.211C65.973 302.291 67.2201 301.774 68.5205 301.774H305.86C307.161 301.774 308.408 302.291 309.327 303.211C310.247 304.13 310.763 305.377 310.763 306.678C310.763 307.978 310.247 309.225 309.327 310.145C308.408 311.064 307.161 311.581 305.86 311.581Z" fill="#E4E4E4"/>
<path d="M305.86 330.955H68.5205C67.2201 330.955 65.9729 330.439 65.0533 329.519C64.1338 328.599 63.6172 327.352 63.6172 326.052C63.6172 324.751 64.1338 323.504 65.0533 322.585C65.9729 321.665 67.2201 321.149 68.5205 321.149H305.86C307.161 321.149 308.408 321.665 309.327 322.585C310.247 323.504 310.764 324.751 310.764 326.052C310.764 327.352 310.247 328.599 309.327 329.519C308.408 330.439 307.161 330.955 305.86 330.955Z" fill="#E4E4E4"/>
<path d="M305.818 384.622H240.65C239.349 384.622 238.102 384.105 237.183 383.186C236.263 382.266 235.746 381.019 235.746 379.719C235.746 378.418 236.263 377.171 237.183 376.251C238.102 375.332 239.349 374.815 240.65 374.815H305.818C307.119 374.815 308.366 375.332 309.286 376.251C310.205 377.171 310.722 378.418 310.722 379.719C310.722 381.019 310.205 382.266 309.286 383.186C308.366 384.105 307.119 384.622 305.818 384.622Z" fill="#04CE5F"/>
<path d="M132.033 82.9184C132.047 93.4483 128.482 103.67 121.923 111.908C119.802 114.59 117.387 117.025 114.723 119.168C107.454 125.065 98.5723 128.628 89.243 129.388C87.973 129.498 86.6927 129.548 85.4027 129.548C82.8464 129.549 80.2944 129.338 77.7728 128.918C76.8832 128.778 76.0131 128.608 75.1429 128.408C73.6285 128.071 72.1331 127.654 70.6629 127.158C65.8952 125.572 61.4168 123.221 57.4027 120.198C56.3328 119.398 55.3031 118.548 54.3031 117.648C53.08 116.564 51.9213 115.408 50.8329 114.188C50.5429 113.868 50.2528 113.538 49.973 113.208C45.0936 107.498 41.6665 100.692 39.9834 93.3716C38.3003 86.0511 38.4111 78.4323 40.3064 71.1639C42.2017 63.8954 45.8253 57.1926 50.8687 51.626C55.9121 46.0594 62.226 41.794 69.2728 39.1929C76.3195 36.5918 83.8905 35.7321 91.3411 36.6868C98.7916 37.6416 105.901 40.3827 112.064 44.6766C118.228 48.9705 123.262 54.6902 126.739 61.3486C130.215 68.007 132.032 75.4069 132.033 82.9184Z" fill="#E4E4E4"/>
<path d="M83.7798 98.8322C94.3334 98.8322 102.889 90.2768 102.889 79.7233C102.889 69.1697 94.3334 60.6143 83.7798 60.6143C73.2263 60.6143 64.6709 69.1697 64.6709 79.7233C64.6709 90.2768 73.2263 98.8322 83.7798 98.8322Z" fill="#FFB8B8"/>
<path d="M105.053 70.4084C105.14 68.7009 104.658 67.0128 103.683 65.6084L102.993 64.6284C100.503 59.8284 96.393 55.5084 93.3832 52.3484C91.123 49.9784 88.8632 48.8384 86.6928 48.9484C85.1135 49.0611 83.6431 49.7946 82.6029 50.9884C79.7451 50.8138 76.8983 51.4768 74.4116 52.896C71.9249 54.3152 69.9062 56.429 68.6029 58.9784C59.453 63.8083 62.183 78.0684 62.2128 78.2184L64.4233 81.9284L64.6733 81.4584C64.6733 81.4484 64.703 81.4084 64.7431 81.3284C65.1733 80.5584 67.5131 76.2784 69.0932 73.5684C69.6699 72.644 70.4369 71.8531 71.3432 71.2484C72.8231 70.2372 74.524 69.5959 76.3032 69.3784L81.163 68.7484L79.3232 71.5084H92.5629L97.6528 70.9084C98.163 72.9984 102.203 81.1084 102.693 82.0884L102.733 82.1684L103.003 82.7184L104.513 78.5684C105.395 75.9407 105.581 73.1294 105.053 70.4084Z" fill="#2F2E41"/>
<path d="M57.543 120.298C58.363 119.218 62.613 114.178 72.393 111.508L77.573 105.738L98.343 102.428L108.913 108.268L121.923 111.908C119.802 114.59 117.387 117.025 114.723 119.168C107.454 125.065 98.5722 128.628 89.243 129.388C87.973 129.498 86.693 129.548 85.403 129.548C82.8466 129.549 80.2946 129.338 77.7729 128.918C76.8829 128.778 76.013 128.608 75.143 128.408C73.6285 128.071 72.1331 127.654 70.663 127.158C65.9491 125.592 61.5189 123.276 57.543 120.298C57.493 120.268 57.453 120.228 57.403 120.198L57.543 120.298Z" fill="#04CE5F"/>
<path d="M581.477 389.372C580.629 388.45 579.994 387.353 579.617 386.159C579.239 384.965 579.127 383.703 579.29 382.461C579.453 381.22 579.886 380.029 580.559 378.972C581.232 377.916 582.128 377.021 583.185 376.348L576.165 346.727L591.023 352.156L595.412 379.452C596.424 381.302 596.722 383.458 596.25 385.513C595.778 387.568 594.568 389.379 592.85 390.602C591.133 391.824 589.026 392.375 586.93 392.148C584.834 391.921 582.893 390.934 581.477 389.372Z" fill="#FFB8B8"/>
<path d="M551 268.224L556.963 283.557C556.963 283.557 554.408 298.891 558.667 302.299C562.926 305.706 561.222 305.706 561.222 308.262C561.369 310.095 561.9 311.877 562.781 313.491C563.661 315.106 564.872 316.517 566.334 317.632C569.741 320.188 585.075 372.152 585.075 372.152H600.409C599.913 368.192 599.913 364.186 600.409 360.226C601.261 354.263 597.853 338.929 596.149 336.374C594.446 333.818 596.149 330.41 596.149 325.299C596.149 320.188 592.742 317.632 592.742 309.114C592.742 300.595 582.519 234.149 583.371 226.482C584.223 218.815 574.852 212 574.852 212H566.334L551 268.224Z" fill="#04CE5F"/>
<path d="M584.96 589.223H573.628L568.237 545.511L584.962 545.512L584.96 589.223Z" fill="#FFB8B8"/>
<path d="M481.289 588.899L470.647 585.005L480.6 542.102L496.308 547.849L481.289 588.899Z" fill="#FFB8B8"/>
<path d="M480.229 600.208L445.913 587.654L446.072 587.22C447.368 583.677 450.018 580.795 453.439 579.206C456.86 577.618 460.772 577.453 464.315 578.749L472.324 576.287L482.28 585.321L485.275 586.417L480.229 600.208Z" fill="#2E2E2E"/>
<path d="M559.993 384.822C559.993 384.822 552.326 422.305 565.104 418.897C577.882 415.49 572.771 383.119 572.771 383.119L559.993 384.822Z" fill="#A0616A"/>
<path d="M503.769 353.729C503.769 353.729 493.546 367.359 493.546 375.026C493.546 382.693 490.139 450.842 490.139 450.842C490.139 450.842 464.274 552.326 469.385 557.437C474.497 562.548 492.386 567.66 494.942 565.104C497.497 562.548 519.955 457.657 519.955 457.657L541.251 400.582L560.845 482.362L562.548 569.253C562.548 569.253 583.845 574.364 588.105 570.957C592.364 567.549 593.216 484.917 588.105 455.954C582.993 426.99 588.956 360.544 588.956 360.544L503.769 353.729Z" fill="#2E2E2E"/>
<path d="M537.932 171.854C552.046 171.854 563.488 160.412 563.488 146.298C563.488 132.183 552.046 120.741 537.932 120.741C523.818 120.741 512.376 132.183 512.376 146.298C512.376 160.412 523.818 171.854 537.932 171.854Z" fill="#FFB8B8"/>
<path d="M505.473 208.91C505.473 208.91 512.831 197.946 527.313 183.465C534.98 180.909 548.264 182.399 552.869 183.465C574.166 211.576 575.506 209.708 581.05 225.415C582.487 229.488 583.206 233.402 582.567 236.596C580.012 249.374 588.104 352.877 588.956 356.284C589.808 359.692 595.771 363.951 589.808 363.951C583.845 363.951 493.546 360.544 495.25 357.988C496.954 355.433 505.473 208.91 505.473 208.91Z" fill="#04CE5F"/>
<path opacity="0.1" d="M501.572 356.864L527.196 300.486L514.384 360.445L501.572 356.864Z" fill="black"/>
<path d="M530.201 169.974C532.593 168.193 534.796 166.171 536.775 163.94C538.762 161.688 540.006 158.879 540.337 155.894C540.482 154.406 540.248 152.906 539.658 151.533C539.067 150.159 538.138 148.958 536.958 148.04C534.524 146.32 530.812 146.42 528.792 148.611C529.768 145.456 530.659 141.734 528.682 139.088C526.883 136.68 523.527 136.271 520.628 135.477C515.036 133.921 510.226 130.337 507.134 125.425L512.057 126.444L511.508 122.934L515.588 124.352L515.624 119.464L519.835 121.82C524.99 117.094 531.784 114.563 538.774 114.763C542.301 114.822 545.755 115.77 548.817 117.52C551.885 119.295 554.209 122.119 555.36 125.471C557.527 123.222 561.392 123.396 563.974 125.154C566.556 126.912 568.073 129.853 569.114 132.799C571.177 138.447 571.657 144.551 570.502 150.452C569.314 156.367 566.127 161.693 561.476 165.535C557.205 168.795 552.119 170.818 546.776 171.383C541.454 171.935 536.081 171.705 530.826 170.701" fill="#2E2E2E"/>
<path d="M493.594 389.261C494.441 388.339 495.076 387.243 495.454 386.049C495.832 384.855 495.943 383.592 495.78 382.351C495.618 381.109 495.184 379.918 494.512 378.862C493.839 377.806 492.942 376.91 491.886 376.238L498.906 346.617L484.048 352.045L479.659 379.341C478.647 381.191 478.349 383.348 478.821 385.403C479.293 387.458 480.503 389.268 482.22 390.491C483.938 391.714 486.045 392.264 488.141 392.037C490.237 391.811 492.177 390.823 493.594 389.261Z" fill="#FFB8B8"/>
<path d="M513.991 208.91H505.473C505.473 208.91 496.102 215.725 496.954 223.392C497.806 231.059 487.583 297.505 487.583 306.024C487.583 314.543 484.176 317.098 484.176 322.21C484.176 327.321 485.88 330.728 484.176 333.284C482.472 335.84 479.065 351.173 479.917 357.136C480.412 361.096 480.412 365.103 479.917 369.063H495.25C495.25 369.063 510.584 317.098 513.991 314.543C515.453 313.427 516.664 312.016 517.544 310.401C518.425 308.787 518.956 307.005 519.103 305.172C519.103 302.616 517.399 302.616 521.658 299.209C525.918 295.801 523.362 280.468 523.362 280.468L529.325 265.134L513.991 208.91Z" fill="#04CE5F"/>
</svg>
