<svg width="374" height="421" viewBox="0 0 374 421" fill="none" xmlns="http://www.w3.org/2000/svg">
<path d="M351.206 420.39H22.4694C16.6127 420.383 10.9978 418.054 6.85654 413.912C2.71525 409.771 0.385759 404.156 0.37915 398.299V22.6182C0.385762 16.7615 2.71525 11.1466 6.85654 7.00531C10.9978 2.86401 16.6127 0.534506 22.4694 0.527863H351.206C357.063 0.534479 362.678 2.86397 366.819 7.00528C370.961 11.1466 373.29 16.7615 373.297 22.6182V398.299C373.29 404.156 370.961 409.771 366.819 413.912C362.678 418.054 357.063 420.383 351.206 420.39Z" fill="#E6E6E6"/>
<path d="M335.845 401.979H37.8304C32.6303 401.973 27.6449 399.904 23.9679 396.227C20.2909 392.55 18.2226 387.565 18.2167 382.365V38.5527C18.2226 33.3527 20.2909 28.3672 23.9679 24.6902C27.6449 21.0132 32.6303 18.9449 37.8304 18.939H335.845C341.045 18.9448 346.031 21.0132 349.708 24.6902C353.385 28.3672 355.453 33.3526 355.459 38.5527V382.365C355.453 387.565 353.385 392.55 349.708 396.227C346.031 399.904 341.045 401.973 335.845 401.979Z" fill="white"/>
<path d="M323.99 67.873H173.65C173.005 67.8739 172.367 67.7477 171.771 67.5018C171.176 67.2558 170.634 66.8948 170.178 66.4394C169.722 65.984 169.36 65.4432 169.114 64.8478C168.867 64.2525 168.74 63.6144 168.74 62.9699C168.74 62.3254 168.867 61.6873 169.114 61.0919C169.36 60.4966 169.722 59.9558 170.178 59.5004C170.634 59.045 171.176 58.684 171.771 58.438C172.367 58.192 173.005 58.0659 173.65 58.0668H323.99C324.634 58.0659 325.272 58.192 325.868 58.438C326.464 58.684 327.005 59.045 327.461 59.5004C327.917 59.9558 328.279 60.4966 328.526 61.0919C328.773 61.6873 328.9 62.3254 328.9 62.9699C328.9 63.6144 328.773 64.2525 328.526 64.8478C328.279 65.4432 327.917 65.984 327.461 66.4394C327.005 66.8948 326.464 67.2558 325.868 67.5018C325.272 67.7477 324.634 67.8739 323.99 67.873Z" fill="#E4E4E4"/>
<path d="M323.99 87.2475H173.65C172.349 87.2475 171.102 86.7309 170.183 85.8113C169.263 84.8918 168.746 83.6446 168.746 82.3442C168.746 81.0437 169.263 79.7965 170.183 78.877C171.102 77.9574 172.349 77.4408 173.65 77.4408H323.99C325.29 77.4408 326.537 77.9574 327.457 78.877C328.376 79.7965 328.893 81.0437 328.893 82.3442C328.893 83.6446 328.376 84.8918 327.457 85.8113C326.537 86.7309 325.29 87.2475 323.99 87.2475Z" fill="#E4E4E4"/>
<path d="M238.818 106.622H173.65C172.349 106.622 171.102 106.105 170.183 105.186C169.263 104.266 168.746 103.019 168.746 101.719C168.746 100.418 169.263 99.1711 170.183 98.2515C171.102 97.332 172.349 96.8154 173.65 96.8154H238.818C240.119 96.8154 241.366 97.332 242.286 98.2515C243.205 99.1711 243.722 100.418 243.722 101.719C243.722 103.019 243.205 104.266 242.286 105.186C241.366 106.105 240.119 106.622 238.818 106.622Z" fill="#E4E4E4"/>
<path d="M305.86 184.873H68.5206C67.8761 184.874 67.2378 184.748 66.6421 184.502C66.0464 184.256 65.5051 183.895 65.049 183.439C64.593 182.984 64.2312 182.443 63.9844 181.848C63.7375 181.253 63.6105 180.614 63.6105 179.97C63.6105 179.325 63.7375 178.687 63.9844 178.092C64.2312 177.497 64.593 176.956 65.049 176.5C65.5051 176.045 66.0464 175.684 66.6421 175.438C67.2378 175.192 67.8761 175.066 68.5206 175.067H305.86C306.505 175.066 307.143 175.192 307.739 175.438C308.335 175.684 308.876 176.045 309.332 176.5C309.788 176.956 310.15 177.497 310.397 178.092C310.643 178.687 310.77 179.325 310.77 179.97C310.77 180.614 310.643 181.253 310.397 181.848C310.15 182.443 309.788 182.984 309.332 183.439C308.876 183.895 308.335 184.256 307.739 184.502C307.143 184.748 306.505 184.874 305.86 184.873Z" fill="#E4E4E4"/>
<path d="M305.86 204.247H68.5205C67.2201 204.247 65.9729 203.731 65.0533 202.811C64.1338 201.892 63.6172 200.645 63.6172 199.344C63.6172 198.044 64.1338 196.797 65.0533 195.877C65.9729 194.957 67.2201 194.441 68.5205 194.441H305.86C307.161 194.441 308.408 194.957 309.327 195.877C310.247 196.797 310.764 198.044 310.764 199.344C310.764 200.645 310.247 201.892 309.327 202.811C308.408 203.731 307.161 204.247 305.86 204.247Z" fill="#E4E4E4"/>
<path d="M305.86 248.227H68.5205C67.2201 248.227 65.973 247.71 65.0535 246.791C64.134 245.871 63.6174 244.624 63.6174 243.324C63.6174 242.023 64.134 240.776 65.0535 239.857C65.973 238.937 67.2201 238.421 68.5205 238.421H305.86C307.161 238.421 308.408 238.937 309.327 239.857C310.247 240.776 310.763 242.023 310.763 243.324C310.763 244.624 310.247 245.871 309.327 246.791C308.408 247.71 307.161 248.227 305.86 248.227Z" fill="#E4E4E4"/>
<path d="M305.86 267.601H68.5205C67.2201 267.601 65.9729 267.085 65.0533 266.165C64.1338 265.246 63.6172 263.998 63.6172 262.698C63.6172 261.398 64.1338 260.15 65.0533 259.231C65.9729 258.311 67.2201 257.795 68.5205 257.795H305.86C307.161 257.795 308.408 258.311 309.327 259.231C310.247 260.15 310.764 261.398 310.764 262.698C310.764 263.998 310.247 265.246 309.327 266.165C308.408 267.085 307.161 267.601 305.86 267.601Z" fill="#E4E4E4"/>
<path d="M305.86 311.581H68.5205C67.2201 311.581 65.973 311.064 65.0535 310.145C64.134 309.225 63.6174 307.978 63.6174 306.678C63.6174 305.377 64.134 304.13 65.0535 303.211C65.973 302.291 67.2201 301.774 68.5205 301.774H305.86C307.161 301.774 308.408 302.291 309.327 303.211C310.247 304.13 310.763 305.377 310.763 306.678C310.763 307.978 310.247 309.225 309.327 310.145C308.408 311.064 307.161 311.581 305.86 311.581Z" fill="#E4E4E4"/>
<path d="M305.86 330.955H68.5205C67.2201 330.955 65.9729 330.439 65.0533 329.519C64.1338 328.599 63.6172 327.352 63.6172 326.052C63.6172 324.751 64.1338 323.504 65.0533 322.585C65.9729 321.665 67.2201 321.149 68.5205 321.149H305.86C307.161 321.149 308.408 321.665 309.327 322.585C310.247 323.504 310.764 324.751 310.764 326.052C310.764 327.352 310.247 328.599 309.327 329.519C308.408 330.439 307.161 330.955 305.86 330.955Z" fill="#E4E4E4"/>
<path d="M305.818 384.622H240.65C239.349 384.622 238.102 384.105 237.183 383.186C236.263 382.266 235.746 381.019 235.746 379.719C235.746 378.418 236.263 377.171 237.183 376.251C238.102 375.332 239.349 374.815 240.65 374.815H305.818C307.119 374.815 308.366 375.332 309.286 376.251C310.205 377.171 310.722 378.418 310.722 379.719C310.722 381.019 310.205 382.266 309.286 383.186C308.366 384.105 307.119 384.622 305.818 384.622Z" fill="#04CE5F"/>
<path d="M132.033 82.9184C132.047 93.4483 128.482 103.67 121.923 111.908C119.802 114.59 117.387 117.025 114.723 119.168C107.454 125.065 98.5723 128.628 89.243 129.388C87.973 129.498 86.6927 129.548 85.4027 129.548C82.8464 129.549 80.2944 129.338 77.7728 128.918C76.8832 128.778 76.0131 128.608 75.1429 128.408C73.6285 128.071 72.1331 127.654 70.6629 127.158C65.8952 125.572 61.4168 123.221 57.4027 120.198C56.3328 119.398 55.3031 118.548 54.3031 117.648C53.08 116.564 51.9213 115.408 50.8329 114.188C50.5429 113.868 50.2528 113.538 49.973 113.208C45.0936 107.498 41.6665 100.692 39.9834 93.3716C38.3003 86.0511 38.4111 78.4323 40.3064 71.1639C42.2017 63.8954 45.8253 57.1926 50.8687 51.626C55.9121 46.0594 62.226 41.794 69.2728 39.1929C76.3195 36.5918 83.8905 35.7321 91.3411 36.6868C98.7916 37.6416 105.901 40.3827 112.064 44.6766C118.228 48.9705 123.262 54.6902 126.739 61.3486C130.215 68.007 132.032 75.4069 132.033 82.9184Z" fill="#E4E4E4"/>
<path d="M83.7798 98.8322C94.3334 98.8322 102.889 90.2768 102.889 79.7233C102.889 69.1697 94.3334 60.6143 83.7798 60.6143C73.2263 60.6143 64.6709 69.1697 64.6709 79.7233C64.6709 90.2768 73.2263 98.8322 83.7798 98.8322Z" fill="#FFB8B8"/>
<path d="M105.053 70.4084C105.14 68.7009 104.658 67.0128 103.683 65.6084L102.993 64.6284C100.503 59.8284 96.393 55.5084 93.3832 52.3484C91.123 49.9784 88.8632 48.8384 86.6928 48.9484C85.1135 49.0611 83.6431 49.7946 82.6029 50.9884C79.7451 50.8138 76.8983 51.4768 74.4116 52.896C71.9249 54.3152 69.9062 56.429 68.6029 58.9784C59.453 63.8083 62.183 78.0684 62.2128 78.2184L64.4233 81.9284L64.6733 81.4584C64.6733 81.4484 64.703 81.4084 64.7431 81.3284C65.1733 80.5584 67.5131 76.2784 69.0932 73.5684C69.6699 72.644 70.4369 71.8531 71.3432 71.2484C72.8231 70.2372 74.524 69.5959 76.3032 69.3784L81.163 68.7484L79.3232 71.5084H92.5629L97.6528 70.9084C98.163 72.9984 102.203 81.1084 102.693 82.0884L102.733 82.1684L103.003 82.7184L104.513 78.5684C105.395 75.9407 105.581 73.1294 105.053 70.4084Z" fill="#2E2E2E"/>
<path d="M57.543 120.298C58.363 119.218 62.613 114.178 72.393 111.508L77.573 105.738L98.343 102.428L108.913 108.268L121.923 111.908C119.802 114.59 117.387 117.025 114.723 119.168C107.454 125.065 98.5722 128.628 89.243 129.388C87.973 129.498 86.693 129.548 85.403 129.548C82.8466 129.549 80.2946 129.338 77.7729 128.918C76.8829 128.778 76.013 128.608 75.143 128.408C73.6285 128.071 72.1331 127.654 70.663 127.158C65.9491 125.592 61.5189 123.276 57.543 120.298C57.493 120.268 57.453 120.228 57.403 120.198L57.543 120.298Z" fill="#04CE5F"/>
</svg>
