<svg width="636" height="601" viewBox="0 0 636 601" fill="none" xmlns="http://www.w3.org/2000/svg">
<path d="M374.517 420.694H24.2469C18.0066 420.688 12.0239 418.357 7.61139 414.213C3.19884 410.069 0.716759 404.451 0.709717 398.591V22.6807C0.716761 16.8205 3.19884 11.2021 7.61139 7.0583C12.0239 2.91447 18.0066 0.583552 24.2469 0.576904H374.517C380.758 0.583525 386.74 2.91444 391.153 7.05827C395.566 11.2021 398.048 16.8204 398.055 22.6807V398.591C398.048 404.451 395.566 410.069 391.153 414.213C386.74 418.357 380.758 420.688 374.517 420.694Z" fill="#E6E6E6"/>
<path d="M358.15 402.272H40.6142C35.0735 402.266 29.7615 400.196 25.8437 396.517C21.9258 392.838 19.722 387.85 19.7157 382.646V38.6249C19.722 33.4217 21.9258 28.4332 25.8437 24.754C29.7615 21.0747 35.0735 19.0051 40.6142 18.9992H358.15C363.691 19.0051 369.003 21.0747 372.921 24.754C376.839 28.4332 379.042 33.4217 379.049 38.6249V382.646C379.042 387.85 376.839 392.838 372.921 396.517C369.003 400.196 363.691 402.266 358.15 402.272Z" fill="white"/>
<path d="M345.518 67.963H185.33C184.644 67.9639 183.963 67.8377 183.329 67.5916C182.694 67.3454 182.117 66.9842 181.631 66.5285C181.145 66.0729 180.76 65.5317 180.497 64.936C180.234 64.3403 180.099 63.7018 180.099 63.0569C180.099 62.4121 180.234 61.7735 180.497 61.1779C180.76 60.5822 181.145 60.041 181.631 59.5854C182.117 59.1297 182.694 58.7685 183.329 58.5223C183.963 58.2762 184.644 58.15 185.33 58.1509H345.518C346.205 58.15 346.885 58.2762 347.519 58.5223C348.154 58.7685 348.731 59.1297 349.217 59.5854C349.703 60.041 350.088 60.5822 350.351 61.1779C350.614 61.7735 350.75 62.4121 350.75 63.0569C350.75 63.7018 350.614 64.3403 350.351 64.936C350.088 65.5317 349.703 66.0729 349.217 66.5285C348.731 66.9842 348.154 67.3454 347.519 67.5916C346.885 67.8377 346.205 67.9639 345.518 67.963Z" fill="#E4E4E4"/>
<path d="M345.518 87.3493H185.33C183.945 87.3493 182.616 86.8324 181.636 85.9123C180.656 84.9922 180.106 83.7443 180.106 82.443C180.106 81.1418 180.656 79.8939 181.636 78.9737C182.616 78.0536 183.945 77.5367 185.33 77.5367H345.518C346.903 77.5367 348.232 78.0536 349.212 78.9737C350.192 79.8939 350.742 81.1418 350.742 82.443C350.742 83.7443 350.192 84.9922 349.212 85.9123C348.232 86.8324 346.903 87.3493 345.518 87.3493Z" fill="#E4E4E4"/>
<path d="M254.768 106.736H185.33C183.945 106.736 182.616 106.219 181.636 105.299C180.656 104.379 180.106 103.131 180.106 101.829C180.106 100.528 180.656 99.2802 181.636 98.3601C182.616 97.44 183.945 96.923 185.33 96.923H254.768C256.153 96.923 257.482 97.44 258.462 98.3601C259.442 99.2802 259.992 100.528 259.992 101.829C259.992 103.131 259.442 104.379 258.462 105.299C257.482 106.219 256.153 106.736 254.768 106.736Z" fill="#E4E4E4"/>
<path d="M326.201 185.034H73.3146C72.6279 185.035 71.9478 184.909 71.3131 184.663C70.6784 184.417 70.1016 184.055 69.6157 183.6C69.1298 183.144 68.7443 182.603 68.4813 182.007C68.2183 181.412 68.0829 180.773 68.0829 180.128C68.0829 179.483 68.2183 178.845 68.4813 178.249C68.7443 177.653 69.1298 177.112 69.6157 176.657C70.1016 176.201 70.6784 175.84 71.3131 175.594C71.9478 175.347 72.6279 175.221 73.3146 175.222H326.201C326.888 175.221 327.568 175.347 328.203 175.594C328.837 175.84 329.414 176.201 329.9 176.657C330.386 177.112 330.771 177.653 331.034 178.249C331.297 178.845 331.433 179.483 331.433 180.128C331.433 180.773 331.297 181.412 331.034 182.007C330.771 182.603 330.386 183.144 329.9 183.6C329.414 184.055 328.837 184.417 328.203 184.663C327.568 184.909 326.888 185.035 326.201 185.034Z" fill="#E4E4E4"/>
<path d="M326.201 204.421H73.3147C71.929 204.421 70.6002 203.904 69.6204 202.983C68.6406 202.063 68.0901 200.815 68.0901 199.514C68.0901 198.213 68.6406 196.965 69.6204 196.045C70.6002 195.125 71.929 194.608 73.3147 194.608H326.201C327.587 194.608 328.915 195.125 329.895 196.045C330.875 196.965 331.426 198.213 331.426 199.514C331.426 200.815 330.875 202.063 329.895 202.983C328.915 203.904 327.587 204.421 326.201 204.421Z" fill="#E4E4E4"/>
<path d="M326.201 248.427H73.3146C71.9291 248.427 70.6003 247.91 69.6205 246.99C68.6408 246.07 68.0904 244.822 68.0904 243.521C68.0904 242.219 68.6408 240.972 69.6205 240.051C70.6003 239.131 71.9291 238.615 73.3146 238.615H326.201C327.587 238.615 328.915 239.131 329.895 240.051C330.875 240.972 331.425 242.219 331.425 243.521C331.425 244.822 330.875 246.07 329.895 246.99C328.915 247.91 327.587 248.427 326.201 248.427Z" fill="#E4E4E4"/>
<path d="M326.201 267.813H73.3147C71.929 267.813 70.6002 267.296 69.6204 266.376C68.6406 265.456 68.0901 264.208 68.0901 262.907C68.0901 261.605 68.6406 260.357 69.6204 259.437C70.6002 258.517 71.929 258 73.3147 258H326.201C327.587 258 328.915 258.517 329.895 259.437C330.875 260.357 331.426 261.605 331.426 262.907C331.426 264.208 330.875 265.456 329.895 266.376C328.915 267.296 327.587 267.813 326.201 267.813Z" fill="#E4E4E4"/>
<path d="M326.201 311.819H73.3146C71.9291 311.819 70.6003 311.302 69.6205 310.382C68.6408 309.462 68.0904 308.214 68.0904 306.913C68.0904 305.612 68.6408 304.364 69.6205 303.444C70.6003 302.524 71.9291 302.007 73.3146 302.007H326.201C327.587 302.007 328.915 302.524 329.895 303.444C330.875 304.364 331.425 305.612 331.425 306.913C331.425 308.214 330.875 309.462 329.895 310.382C328.915 311.302 327.587 311.819 326.201 311.819Z" fill="#E4E4E4"/>
<path d="M326.201 331.205H73.3147C71.929 331.205 70.6002 330.689 69.6204 329.768C68.6406 328.848 68.0901 327.6 68.0901 326.299C68.0901 324.998 68.6406 323.75 69.6204 322.83C70.6002 321.91 71.929 321.393 73.3147 321.393H326.201C327.587 321.393 328.915 321.91 329.895 322.83C330.875 323.75 331.426 324.998 331.426 326.299C331.426 327.6 330.875 328.848 329.895 329.768C328.915 330.689 327.587 331.205 326.201 331.205Z" fill="#E4E4E4"/>
<path d="M326.156 384.905H256.719C255.333 384.905 254.004 384.388 253.025 383.468C252.045 382.548 251.494 381.3 251.494 379.999C251.494 378.697 252.045 377.449 253.025 376.529C254.004 375.609 255.333 375.092 256.719 375.092H326.156C327.542 375.092 328.871 375.609 329.851 376.529C330.83 377.449 331.381 378.697 331.381 379.999C331.381 381.3 330.83 382.548 329.851 383.468C328.871 384.388 327.542 384.905 326.156 384.905Z" fill="#04CE5F"/>
<path d="M140.987 83.0176C141.002 93.5539 137.204 103.782 130.215 112.025C127.955 114.708 125.382 117.145 122.544 119.29C114.798 125.19 105.335 128.755 95.3945 129.516C94.0413 129.626 92.6772 129.676 91.3026 129.676C88.5789 129.677 85.8597 129.466 83.173 129.046C82.225 128.906 81.2979 128.735 80.3708 128.535C78.7572 128.198 77.1638 127.781 75.5974 127.285C70.5173 125.697 65.7456 123.345 61.4685 120.32C60.3286 119.52 59.2314 118.669 58.1659 117.769C56.8627 116.683 55.6281 115.527 54.4683 114.307C54.1593 113.986 53.8503 113.656 53.5522 113.326C48.3531 107.612 44.7015 100.802 42.9082 93.4772C41.1149 86.1523 41.233 78.5288 43.2524 71.2559C45.2718 63.983 49.1328 57.2761 54.5065 51.7062C59.8803 46.1362 66.6078 41.8682 74.1161 39.2655C81.6245 36.6628 89.6914 35.8026 97.63 36.7579C105.569 37.7133 113.144 40.456 119.711 44.7525C126.278 49.049 131.642 54.7722 135.346 61.4346C139.051 68.0971 140.986 75.5015 140.987 83.0176Z" fill="#E4E4E4"/>
<path d="M89.5734 98.9411C100.818 98.9411 109.934 90.3805 109.934 79.8205C109.934 69.2605 100.818 60.7 89.5734 60.7C78.3286 60.7 69.2128 69.2605 69.2128 79.8205C69.2128 90.3805 78.3286 98.9411 89.5734 98.9411Z" fill="#FFB8B8"/>
<path d="M112.24 70.5C112.333 68.7914 111.819 67.1024 110.78 65.697L110.045 64.7164C107.392 59.9135 103.013 55.5909 99.8059 52.429C97.3976 50.0575 94.9899 48.9168 92.6773 49.0269C90.9945 49.1397 89.4278 49.8736 88.3195 51.0681C85.2744 50.8935 82.2412 51.5569 79.5916 52.9769C76.942 54.397 74.7911 56.5121 73.4025 59.063C63.6532 63.8959 66.562 78.1646 66.5938 78.3147L68.949 82.027L69.2154 81.5567C69.2154 81.5467 69.2471 81.5067 69.2898 81.4266C69.7481 80.6562 72.2412 76.3735 73.9248 73.6619C74.5393 72.737 75.3566 71.9456 76.3222 71.3405C77.899 70.3287 79.7114 69.687 81.6071 69.4693L86.7853 68.8389L84.8249 71.6006H98.9319L104.355 71.0003C104.899 73.0915 109.203 81.2065 109.725 82.1871L109.768 82.2671L110.056 82.8175L111.665 78.6649C112.604 76.0356 112.803 73.2226 112.24 70.5Z" fill="#505050"/>
<path d="M61.618 120.42C62.4917 119.34 67.0201 114.297 77.4407 111.625L82.96 105.851L105.091 102.539L116.353 108.383L130.215 112.025C127.955 114.708 125.382 117.145 122.543 119.29C114.798 125.19 105.335 128.755 95.3944 129.516C94.0412 129.626 92.6774 129.676 91.3029 129.676C88.5791 129.677 85.8599 129.466 83.1731 129.046C82.2248 128.905 81.2979 128.735 80.3709 128.535C78.7572 128.198 77.1638 127.781 75.5974 127.284C70.5748 125.717 65.8543 123.4 61.618 120.42C61.5647 120.39 61.5221 120.35 61.4688 120.32L61.618 120.42Z" fill="#04CE5F"/>
<path d="M619.871 389.658C618.968 388.735 618.292 387.638 617.889 386.443C617.487 385.248 617.368 383.985 617.542 382.743C617.715 381.5 618.177 380.309 618.894 379.252C619.611 378.195 620.566 377.299 621.691 376.626L614.211 346.987L630.043 352.419L634.719 379.732C635.797 381.583 636.115 383.741 635.612 385.797C635.109 387.853 633.82 389.665 631.99 390.888C630.16 392.112 627.915 392.662 625.682 392.435C623.448 392.209 621.381 391.22 619.871 389.658Z" fill="#FFB8B8"/>
<path d="M581.8 265.455L588.153 280.798C588.153 280.798 585.43 296.141 589.969 299.55C594.507 302.96 592.692 302.96 592.692 305.517C592.848 307.351 593.414 309.134 594.352 310.75C595.29 312.365 596.58 313.777 598.138 314.894C601.768 317.451 618.107 369.447 618.107 369.447H634.445C633.917 365.484 633.917 361.476 634.445 357.513C635.352 351.546 631.722 336.203 629.906 333.646C628.091 331.089 629.906 327.679 629.906 322.565C629.906 317.451 626.276 314.894 626.276 306.37C626.276 297.846 615.383 231.359 616.291 223.688C617.199 216.016 607.214 209.197 607.214 209.197H598.138L581.8 265.455Z" fill="#04CE5F"/>
<path d="M623.583 589.631H611.508L605.764 545.892L623.585 545.893L623.583 589.631Z" fill="#FFB8B8"/>
<path d="M626.663 600.622L587.728 600.621V600.159C587.728 596.384 589.325 592.765 592.167 590.096C595.009 587.427 598.863 585.928 602.882 585.927L609.995 580.861L623.265 585.928L626.663 585.928L626.663 600.622Z" fill="#505050"/>
<path d="M513.121 589.306L501.782 585.41L512.387 542.481L529.124 548.231L513.121 589.306Z" fill="#FFB8B8"/>
<path d="M511.992 600.623L475.427 588.06L475.597 587.626C476.978 584.081 479.801 581.197 483.447 579.608C487.092 578.018 491.26 577.853 495.035 579.15L503.568 576.686L514.176 585.726L517.368 586.823L511.992 600.623Z" fill="#505050"/>
<path d="M596.98 385.105C596.98 385.105 588.811 422.611 602.426 419.201C616.041 415.791 610.595 383.401 610.595 383.401L596.98 385.105Z" fill="#A0616A"/>
<path d="M537.073 353.993C537.073 353.993 526.181 367.631 526.181 375.303C526.181 382.974 522.551 451.166 522.551 451.166C522.551 451.166 494.992 552.711 500.438 557.825C505.884 562.94 524.945 568.054 527.668 565.497C530.391 562.94 554.319 457.985 554.319 457.985L577.011 400.875L597.888 482.704L599.703 569.648C599.703 569.648 622.395 574.763 626.933 571.353C631.472 567.943 632.379 485.261 626.933 456.28C621.487 427.299 627.841 360.812 627.841 360.812L537.073 353.993Z" fill="#505050"/>
<path d="M573.474 172.007C588.513 172.007 600.704 160.558 600.704 146.435C600.704 132.313 588.513 120.864 573.474 120.864C558.435 120.864 546.244 132.313 546.244 146.435C546.244 160.558 558.435 172.007 573.474 172.007Z" fill="#FFB8B8"/>
<path d="M538.889 209.086C538.889 209.086 546.729 198.116 562.16 183.625C570.329 181.068 584.483 182.558 589.39 183.625C612.082 211.754 613.51 209.885 619.416 225.601C620.948 229.677 621.714 233.593 621.033 236.789C618.31 249.575 626.933 353.141 627.841 356.55C628.748 359.96 635.102 364.222 628.748 364.222C622.395 364.222 526.181 360.812 527.997 358.255C529.812 355.698 538.889 209.086 538.889 209.086Z" fill="#04CE5F"/>
<path opacity="0.1" d="M534.732 357.13L562.035 300.718L548.384 360.713L534.732 357.13Z" fill="black"/>
<path d="M565.236 170.126C567.786 168.344 570.133 166.321 572.242 164.088C574.358 161.835 575.684 159.024 576.036 156.038C576.191 154.549 575.942 153.048 575.313 151.674C574.683 150.299 573.694 149.097 572.437 148.179C569.843 146.458 565.888 146.558 563.735 148.75C564.775 145.593 565.725 141.869 563.619 139.222C561.702 136.812 558.125 136.403 555.036 135.608C549.079 134.051 543.953 130.465 540.659 125.55L545.904 126.569L545.319 123.057L549.667 124.477L549.705 119.585L554.191 121.943C559.684 117.214 566.923 114.681 574.372 114.882C578.129 114.941 581.809 115.89 585.072 117.64C588.341 119.416 590.817 122.242 592.044 125.596C594.353 123.345 598.471 123.519 601.222 125.279C603.973 127.038 605.589 129.981 606.699 132.928C608.896 138.58 609.408 144.688 608.178 150.592C606.912 156.511 603.516 161.84 598.561 165.685C594.009 168.947 588.591 170.971 582.897 171.536C577.227 172.088 571.502 171.858 565.902 170.854" fill="#505050"/>
<path d="M526.232 389.547C527.135 388.625 527.811 387.527 528.214 386.333C528.616 385.138 528.735 383.875 528.562 382.632C528.388 381.39 527.926 380.198 527.209 379.141C526.493 378.085 525.538 377.188 524.412 376.516L531.892 346.876L516.06 352.308L511.384 379.621C510.306 381.472 509.988 383.63 510.491 385.686C510.994 387.743 512.283 389.554 514.113 390.778C515.943 392.001 518.188 392.552 520.421 392.325C522.655 392.098 524.722 391.11 526.232 389.547Z" fill="#FFB8B8"/>
<path d="M547.965 209.086H538.889C538.889 209.086 528.904 215.905 529.812 223.577C530.72 231.248 519.828 297.735 519.828 306.259C519.828 314.783 516.197 317.34 516.197 322.454C516.197 327.569 518.012 330.978 516.197 333.536C514.382 336.093 510.751 351.436 511.659 357.403C512.186 361.365 512.186 365.374 511.659 369.336H527.997C527.997 369.336 544.335 317.34 547.965 314.783C549.523 313.666 550.813 312.255 551.751 310.639C552.689 309.024 553.255 307.241 553.412 305.407C553.412 302.849 551.596 302.849 556.135 299.44C560.673 296.03 557.95 280.687 557.95 280.687L564.304 265.344L547.965 209.086Z" fill="#04CE5F"/>
</svg>
