<svg width="838" height="683" viewBox="0 0 838 683" fill="none" xmlns="http://www.w3.org/2000/svg">
<path d="M432.206 500.39H103.469C97.6127 500.383 91.9978 498.054 87.8565 493.912C83.7153 489.771 81.3858 484.156 81.3792 478.299V102.618C81.3858 96.7615 83.7153 91.1466 87.8565 87.0053C91.9978 82.864 97.6127 80.5345 103.469 80.5279H432.206C438.063 80.5345 443.678 82.864 447.819 87.0053C451.961 91.1466 454.29 96.7615 454.297 102.618V478.299C454.29 484.156 451.961 489.771 447.819 493.912C443.678 498.054 438.063 500.383 432.206 500.39Z" fill="#E6E6E6"/>
<path d="M416.845 481.979H118.83C113.63 481.973 108.645 479.904 104.968 476.227C101.291 472.55 99.2226 467.565 99.2167 462.365V118.553C99.2226 113.353 101.291 108.367 104.968 104.69C108.645 101.013 113.63 98.9449 118.83 98.939H416.845C422.045 98.9448 427.031 101.013 430.708 104.69C434.385 108.367 436.453 113.353 436.459 118.553V462.365C436.453 467.565 434.385 472.55 430.708 476.227C427.031 479.904 422.045 481.973 416.845 481.979Z" fill="white"/>
<path d="M404.99 147.873H254.65C254.005 147.874 253.367 147.748 252.771 147.502C252.176 147.256 251.634 146.895 251.178 146.439C250.722 145.984 250.36 145.443 250.114 144.848C249.867 144.253 249.74 143.614 249.74 142.97C249.74 142.325 249.867 141.687 250.114 141.092C250.36 140.497 250.722 139.956 251.178 139.5C251.634 139.045 252.176 138.684 252.771 138.438C253.367 138.192 254.005 138.066 254.65 138.067H404.99C405.634 138.066 406.272 138.192 406.868 138.438C407.464 138.684 408.005 139.045 408.461 139.5C408.917 139.956 409.279 140.497 409.526 141.092C409.773 141.687 409.9 142.325 409.9 142.97C409.9 143.614 409.773 144.253 409.526 144.848C409.279 145.443 408.917 145.984 408.461 146.439C408.005 146.895 407.464 147.256 406.868 147.502C406.272 147.748 405.634 147.874 404.99 147.873Z" fill="#E4E4E4"/>
<path d="M404.99 167.247H254.65C253.349 167.247 252.102 166.731 251.183 165.811C250.263 164.892 249.746 163.645 249.746 162.344C249.746 161.044 250.263 159.797 251.183 158.877C252.102 157.957 253.349 157.441 254.65 157.441H404.99C406.29 157.441 407.537 157.957 408.457 158.877C409.376 159.797 409.893 161.044 409.893 162.344C409.893 163.645 409.376 164.892 408.457 165.811C407.537 166.731 406.29 167.247 404.99 167.247Z" fill="#E4E4E4"/>
<path d="M319.818 186.622H254.65C253.349 186.622 252.102 186.105 251.183 185.186C250.263 184.266 249.746 183.019 249.746 181.719C249.746 180.418 250.263 179.171 251.183 178.252C252.102 177.332 253.349 176.815 254.65 176.815H319.818C321.119 176.815 322.366 177.332 323.286 178.252C324.205 179.171 324.722 180.418 324.722 181.719C324.722 183.019 324.205 184.266 323.286 185.186C322.366 186.105 321.119 186.622 319.818 186.622Z" fill="#E4E4E4"/>
<path d="M386.86 264.873H149.521C148.876 264.874 148.238 264.748 147.642 264.502C147.046 264.256 146.505 263.895 146.049 263.439C145.593 262.984 145.231 262.443 144.984 261.848C144.738 261.253 144.61 260.614 144.61 259.97C144.61 259.325 144.738 258.687 144.984 258.092C145.231 257.497 145.593 256.956 146.049 256.5C146.505 256.045 147.046 255.684 147.642 255.438C148.238 255.192 148.876 255.066 149.521 255.067H386.86C387.505 255.066 388.143 255.192 388.739 255.438C389.335 255.684 389.876 256.045 390.332 256.5C390.788 256.956 391.15 257.497 391.397 258.092C391.643 258.687 391.77 259.325 391.77 259.97C391.77 260.614 391.643 261.253 391.397 261.848C391.15 262.443 390.788 262.984 390.332 263.439C389.876 263.895 389.335 264.256 388.739 264.502C388.143 264.748 387.505 264.874 386.86 264.873Z" fill="#E4E4E4"/>
<path d="M386.86 284.247H149.521C148.22 284.247 146.973 283.731 146.053 282.811C145.134 281.892 144.617 280.645 144.617 279.344C144.617 278.044 145.134 276.797 146.053 275.877C146.973 274.957 148.22 274.441 149.521 274.441H386.86C388.161 274.441 389.408 274.957 390.327 275.877C391.247 276.797 391.764 278.044 391.764 279.344C391.764 280.645 391.247 281.892 390.327 282.811C389.408 283.731 388.161 284.247 386.86 284.247Z" fill="#E4E4E4"/>
<path d="M386.86 328.227H149.521C148.22 328.227 146.973 327.71 146.053 326.791C145.134 325.871 144.617 324.624 144.617 323.324C144.617 322.023 145.134 320.776 146.053 319.857C146.973 318.937 148.22 318.421 149.521 318.421H386.86C388.161 318.421 389.408 318.937 390.327 319.857C391.247 320.776 391.763 322.023 391.763 323.324C391.763 324.624 391.247 325.871 390.327 326.791C389.408 327.71 388.161 328.227 386.86 328.227Z" fill="#E4E4E4"/>
<path d="M386.86 347.601H149.521C148.22 347.601 146.973 347.085 146.053 346.165C145.134 345.246 144.617 343.998 144.617 342.698C144.617 341.398 145.134 340.15 146.053 339.231C146.973 338.311 148.22 337.795 149.521 337.795H386.86C388.161 337.795 389.408 338.311 390.327 339.231C391.247 340.15 391.764 341.398 391.764 342.698C391.764 343.998 391.247 345.246 390.327 346.165C389.408 347.085 388.161 347.601 386.86 347.601Z" fill="#E4E4E4"/>
<path d="M386.86 391.581H149.521C148.22 391.581 146.973 391.064 146.053 390.145C145.134 389.225 144.617 387.978 144.617 386.678C144.617 385.377 145.134 384.13 146.053 383.211C146.973 382.291 148.22 381.774 149.521 381.774H386.86C388.161 381.774 389.408 382.291 390.327 383.211C391.247 384.13 391.763 385.377 391.763 386.678C391.763 387.978 391.247 389.225 390.327 390.145C389.408 391.064 388.161 391.581 386.86 391.581Z" fill="#E4E4E4"/>
<path d="M386.86 410.955H149.521C148.22 410.955 146.973 410.439 146.053 409.519C145.134 408.599 144.617 407.352 144.617 406.052C144.617 404.751 145.134 403.504 146.053 402.585C146.973 401.665 148.22 401.149 149.521 401.149H386.86C388.161 401.149 389.408 401.665 390.327 402.585C391.247 403.504 391.764 404.751 391.764 406.052C391.764 407.352 391.247 408.599 390.327 409.519C389.408 410.439 388.161 410.955 386.86 410.955Z" fill="#E4E4E4"/>
<path d="M386.818 464.622H321.65C320.349 464.622 319.102 464.105 318.183 463.186C317.263 462.266 316.746 461.019 316.746 459.719C316.746 458.418 317.263 457.171 318.183 456.251C319.102 455.332 320.349 454.815 321.65 454.815H386.818C388.119 454.815 389.366 455.332 390.286 456.251C391.205 457.171 391.722 458.418 391.722 459.719C391.722 461.019 391.205 462.266 390.286 463.186C389.366 464.105 388.119 464.622 386.818 464.622Z" fill="#04CE5F"/>
<path d="M213.033 162.918C213.047 173.448 209.482 183.67 202.923 191.908C200.802 194.59 198.387 197.025 195.723 199.168C188.454 205.065 179.572 208.628 170.243 209.388C168.973 209.498 167.693 209.548 166.403 209.548C163.846 209.549 161.294 209.338 158.773 208.918C157.883 208.778 157.013 208.608 156.143 208.408C154.629 208.071 153.133 207.654 151.663 207.158C146.895 205.572 142.417 203.221 138.403 200.198C137.333 199.398 136.303 198.548 135.303 197.648C134.08 196.564 132.921 195.408 131.833 194.188C131.543 193.868 131.253 193.538 130.973 193.208C126.094 187.498 122.666 180.692 120.983 173.372C119.3 166.051 119.411 158.432 121.306 151.164C123.202 143.895 126.825 137.193 131.869 131.626C136.912 126.059 143.226 121.794 150.273 119.193C157.32 116.592 164.89 115.732 172.341 116.687C179.792 117.642 186.901 120.383 193.064 124.677C199.228 128.971 204.262 134.69 207.739 141.349C211.215 148.007 213.032 155.407 213.033 162.918Z" fill="#E4E4E4"/>
<path d="M164.78 178.832C175.333 178.832 183.889 170.277 183.889 159.723C183.889 149.17 175.333 140.614 164.78 140.614C154.226 140.614 145.671 149.17 145.671 159.723C145.671 170.277 154.226 178.832 164.78 178.832Z" fill="#FFB8B8"/>
<path d="M186.053 150.408C186.14 148.701 185.658 147.013 184.683 145.608L183.993 144.628C181.503 139.828 177.393 135.508 174.383 132.348C172.123 129.978 169.863 128.838 167.693 128.948C166.113 129.061 164.643 129.795 163.603 130.988C160.745 130.814 157.898 131.477 155.412 132.896C152.925 134.315 150.906 136.429 149.603 138.978C140.453 143.808 143.183 158.068 143.213 158.218L145.423 161.928L145.673 161.458C145.673 161.448 145.703 161.408 145.743 161.328C146.173 160.558 148.513 156.278 150.093 153.568C150.67 152.644 151.437 151.853 152.343 151.248C153.823 150.237 155.524 149.596 157.303 149.378L162.163 148.748L160.323 151.508H173.563L178.653 150.908C179.163 152.998 183.203 161.108 183.693 162.088L183.733 162.168L184.003 162.718L185.513 158.568C186.395 155.941 186.581 153.129 186.053 150.408Z" fill="#2F2E41"/>
<path d="M138.543 200.298C139.363 199.218 143.613 194.178 153.393 191.508L158.573 185.738L179.343 182.428L189.913 188.268L202.923 191.908C200.802 194.59 198.387 197.025 195.723 199.168C188.454 205.065 179.572 208.628 170.243 209.388C168.973 209.498 167.693 209.548 166.403 209.548C163.847 209.549 161.295 209.338 158.773 208.918C157.883 208.778 157.013 208.608 156.143 208.408C154.629 208.071 153.133 207.654 151.663 207.158C146.949 205.592 142.519 203.276 138.543 200.298C138.493 200.268 138.453 200.228 138.403 200.198L138.543 200.298Z" fill="#04CE5F"/>
<path d="M662.477 469.372C661.629 468.45 660.994 467.353 660.617 466.159C660.239 464.965 660.127 463.703 660.29 462.461C660.453 461.22 660.886 460.029 661.559 458.972C662.232 457.916 663.128 457.021 664.185 456.348L657.165 426.727L672.023 432.156L676.412 459.452C677.424 461.302 677.722 463.458 677.25 465.513C676.778 467.568 675.568 469.379 673.85 470.602C672.133 471.824 670.026 472.375 667.93 472.148C665.834 471.921 663.893 470.934 662.477 469.372Z" fill="#FFB8B8"/>
<path d="M632 348.224L637.963 363.557C637.963 363.557 635.408 378.891 639.667 382.299C643.926 385.706 642.222 385.706 642.222 388.262C642.369 390.095 642.9 391.877 643.781 393.491C644.661 395.106 645.872 396.517 647.334 397.632C650.741 400.188 666.075 452.152 666.075 452.152H681.409C680.913 448.192 680.913 444.186 681.409 440.226C682.261 434.263 678.853 418.929 677.149 416.374C675.446 413.818 677.149 410.41 677.149 405.299C677.149 400.188 673.742 397.632 673.742 389.114C673.742 380.595 663.519 314.149 664.371 306.482C665.223 298.815 655.852 292 655.852 292H647.334L632 348.224Z" fill="#04CE5F"/>
<path d="M665.96 669.223H654.628L649.237 625.511L665.962 625.512L665.96 669.223Z" fill="#FFB8B8"/>
<path d="M668.851 680.208L632.31 680.207V679.745C632.31 675.973 633.808 672.355 636.476 669.688C639.143 667.021 642.76 665.522 646.532 665.522L653.208 660.458L665.661 665.523L668.851 665.523L668.851 680.208Z" fill="#2E2E2E"/>
<path d="M562.289 668.899L551.647 665.005L561.6 622.102L577.308 627.849L562.289 668.899Z" fill="#FFB8B8"/>
<path d="M561.229 680.208L526.913 667.654L527.072 667.219C528.368 663.677 531.018 660.795 534.439 659.206C537.86 657.618 541.772 657.453 545.315 658.749L553.324 656.286L563.28 665.321L566.275 666.417L561.229 680.208Z" fill="#2E2E2E"/>
<path d="M640.993 464.822C640.993 464.822 633.326 502.305 646.104 498.897C658.882 495.49 653.771 463.119 653.771 463.119L640.993 464.822Z" fill="#A0616A"/>
<path d="M584.769 433.729C584.769 433.729 574.546 447.359 574.546 455.026C574.546 462.693 571.139 530.842 571.139 530.842C571.139 530.842 545.274 632.326 550.385 637.437C555.497 642.548 573.386 647.66 575.942 645.104C578.497 642.548 600.955 537.657 600.955 537.657L622.251 480.582L641.845 562.362L643.548 649.253C643.548 649.253 664.845 654.364 669.105 650.957C673.364 647.549 674.216 564.917 669.105 535.954C663.993 506.99 669.956 440.544 669.956 440.544L584.769 433.729Z" fill="#2E2E2E"/>
<path d="M618.932 251.854C633.046 251.854 644.488 240.412 644.488 226.298C644.488 212.183 633.046 200.741 618.932 200.741C604.818 200.741 593.376 212.183 593.376 226.298C593.376 240.412 604.818 251.854 618.932 251.854Z" fill="#FFB8B8"/>
<path d="M586.473 288.91C586.473 288.91 593.831 277.946 608.313 263.465C615.98 260.909 629.264 262.399 633.869 263.465C655.166 291.576 656.506 289.708 662.05 305.415C663.487 309.488 664.206 313.402 663.567 316.596C661.012 329.374 669.104 432.877 669.956 436.284C670.808 439.692 676.771 443.951 670.808 443.951C664.845 443.951 574.546 440.544 576.25 437.988C577.954 435.433 586.473 288.91 586.473 288.91Z" fill="#04CE5F"/>
<path opacity="0.1" d="M582.572 436.864L608.196 380.486L595.384 440.445L582.572 436.864Z" fill="black"/>
<path d="M611.201 249.974C613.593 248.193 615.796 246.171 617.775 243.94C619.762 241.688 621.006 238.879 621.337 235.894C621.482 234.406 621.248 232.906 620.658 231.533C620.067 230.159 619.138 228.958 617.958 228.04C615.524 226.32 611.812 226.42 609.792 228.611C610.768 225.456 611.659 221.734 609.682 219.088C607.883 216.68 604.527 216.271 601.628 215.477C596.036 213.921 591.226 210.337 588.134 205.425L593.057 206.444L592.508 202.934L596.588 204.352L596.624 199.464L600.835 201.82C605.99 197.094 612.784 194.563 619.774 194.763C623.301 194.822 626.755 195.77 629.817 197.52C632.885 199.295 635.209 202.119 636.36 205.471C638.527 203.222 642.392 203.396 644.974 205.154C647.556 206.912 649.073 209.853 650.114 212.799C652.177 218.447 652.657 224.551 651.502 230.452C650.314 236.367 647.127 241.693 642.476 245.535C638.205 248.795 633.119 250.818 627.776 251.383C622.454 251.935 617.081 251.705 611.826 250.701" fill="#2E2E2E"/>
<path d="M574.594 469.261C575.441 468.339 576.076 467.243 576.454 466.049C576.832 464.855 576.943 463.592 576.78 462.351C576.618 461.109 576.184 459.918 575.512 458.862C574.839 457.806 573.942 456.91 572.886 456.238L579.906 426.617L565.048 432.045L560.659 459.341C559.647 461.191 559.349 463.348 559.821 465.403C560.293 467.458 561.503 469.268 563.22 470.491C564.938 471.714 567.045 472.264 569.141 472.037C571.237 471.811 573.177 470.823 574.594 469.261Z" fill="#FFB8B8"/>
<path d="M594.991 288.91H586.473C586.473 288.91 577.102 295.725 577.954 303.392C578.806 311.059 568.583 377.505 568.583 386.024C568.583 394.543 565.176 397.098 565.176 402.21C565.176 407.321 566.88 410.728 565.176 413.284C563.472 415.84 560.065 431.173 560.917 437.136C561.412 441.096 561.412 445.103 560.917 449.063H576.25C576.25 449.063 591.584 397.098 594.991 394.543C596.453 393.427 597.664 392.016 598.544 390.401C599.425 388.787 599.956 387.005 600.103 385.172C600.103 382.616 598.399 382.616 602.658 379.209C606.918 375.801 604.362 360.468 604.362 360.468L610.325 345.134L594.991 288.91Z" fill="#04CE5F"/>
</svg>
